<svg xmlns="http://www.w3.org/2000/svg" viewBox="0 0 383.35 281.47"><title>Asset 1</title><g id="Layer_2" data-name="Layer 2"><g id="Layer_1-2" data-name="Layer 1"><path d="M0,9.74C3.23,2.22,9.14-.08,17,0,40.31.25,63.63.17,86.94,0a17.15,17.15,0,0,1,13.75,6.15q56,62.37,112,124.59c6.08,6.75,6.1,13.15,0,19.91q-56,62.28-112,124.59A17.18,17.18,0,0,1,87,281.43c-23.32-.13-46.63-.21-69.94,0-7.87.09-13.78-2.22-17-9.73v-6c2.07-3.06,3.81-6.41,6.25-9.14q42.08-47,84.32-93.74c6.57-7.3,13.13-14.61,19.88-22.12-2.25-2.51-4.3-4.83-6.37-7.13Q55.15,79.25,6.27,24.85C3.82,22.12,2.07,18.78,0,15.73Z"/><path d="M276.49,140.68l-41-45.56Q203,59,170.45,22.79C164.36,16,164.6,7.6,171.29,3A16.4,16.4,0,0,1,180,.21C204.91,0,229.85.09,254.8.1a14.4,14.4,0,0,1,11.12,5.24Q313.46,58.2,361,111q8.88,9.87,17.78,19.73c6.07,6.76,6.07,13.18,0,19.92Q322.5,213.27,266.2,275.86a15.1,15.1,0,0,1-11.76,5.52c-24.69,0-49.39,0-74.09,0-10.33,0-16.83-8.5-13.31-17.37a22.47,22.47,0,0,1,4.39-6.4q51.38-57.21,102.83-114.34C274.92,142.5,275.56,141.75,276.49,140.68Z"/></g></g></svg>